<mxfile host="app.diagrams.net" agent="Mozilla/5.0 (Windows NT 10.0; Win64; x64) AppleWebKit/537.36 (KHTML, like Gecko) Chrome/137.0.0.0 Safari/537.36" version="27.1.6" pages="4">
  <diagram name="流程图" id="GpeKnNCBH_ldYGAc3lkJ">
    <mxGraphModel dx="1554" dy="1984" grid="1" gridSize="10" guides="1" tooltips="1" connect="1" arrows="1" fold="1" page="1" pageScale="1" pageWidth="827" pageHeight="1169" math="0" shadow="0">
      <root>
        <mxCell id="0" />
        <mxCell id="1" parent="0" />
        <mxCell id="t6Wc2Bh6c8SVzE2tYRkq-9" value="" style="edgeStyle=orthogonalEdgeStyle;rounded=0;orthogonalLoop=1;jettySize=auto;html=1;" parent="1" source="t6Wc2Bh6c8SVzE2tYRkq-1" target="t6Wc2Bh6c8SVzE2tYRkq-2" edge="1">
          <mxGeometry relative="1" as="geometry" />
        </mxCell>
        <mxCell id="t6Wc2Bh6c8SVzE2tYRkq-1" value="abc" style="rounded=0;whiteSpace=wrap;html=1;flipV=1;shape=process;aspect=fixed;backgroundOutline=1;" parent="1" vertex="1">
          <mxGeometry x="190" y="230" width="220" height="110" as="geometry" />
        </mxCell>
        <mxCell id="t6Wc2Bh6c8SVzE2tYRkq-10" value="" style="edgeStyle=orthogonalEdgeStyle;rounded=0;orthogonalLoop=1;jettySize=auto;html=1;fillColor=#dae8fc;strokeColor=#6c8ebf;" parent="1" source="t6Wc2Bh6c8SVzE2tYRkq-2" target="t6Wc2Bh6c8SVzE2tYRkq-3" edge="1">
          <mxGeometry relative="1" as="geometry" />
        </mxCell>
        <mxCell id="t6Wc2Bh6c8SVzE2tYRkq-2" value="" style="rounded=0;whiteSpace=wrap;html=1;flipV=1;fillColor=#dae8fc;strokeColor=#6c8ebf;" parent="1" vertex="1">
          <mxGeometry x="239" y="355" width="120" height="60" as="geometry" />
        </mxCell>
        <mxCell id="t6Wc2Bh6c8SVzE2tYRkq-11" value="" style="edgeStyle=orthogonalEdgeStyle;rounded=0;orthogonalLoop=1;jettySize=auto;html=1;" parent="1" source="t6Wc2Bh6c8SVzE2tYRkq-3" target="t6Wc2Bh6c8SVzE2tYRkq-4" edge="1">
          <mxGeometry relative="1" as="geometry" />
        </mxCell>
        <mxCell id="t6Wc2Bh6c8SVzE2tYRkq-3" value="" style="rounded=0;whiteSpace=wrap;html=1;flipV=1;fillColor=#dae8fc;strokeColor=#6c8ebf;flipH=0;" parent="1" vertex="1">
          <mxGeometry x="239" y="466" width="120" height="60" as="geometry" />
        </mxCell>
        <mxCell id="t6Wc2Bh6c8SVzE2tYRkq-13" value="" style="edgeStyle=orthogonalEdgeStyle;rounded=0;orthogonalLoop=1;jettySize=auto;html=1;" parent="1" source="t6Wc2Bh6c8SVzE2tYRkq-4" target="t6Wc2Bh6c8SVzE2tYRkq-12" edge="1">
          <mxGeometry relative="1" as="geometry" />
        </mxCell>
        <mxCell id="t6Wc2Bh6c8SVzE2tYRkq-4" value="" style="rounded=0;whiteSpace=wrap;html=1;flipV=1;flipH=0;" parent="1" vertex="1">
          <mxGeometry x="239" y="578" width="120" height="60" as="geometry" />
        </mxCell>
        <mxCell id="t6Wc2Bh6c8SVzE2tYRkq-8" style="edgeStyle=orthogonalEdgeStyle;rounded=0;orthogonalLoop=1;jettySize=auto;html=1;exitX=0.5;exitY=1;exitDx=0;exitDy=0;" parent="1" source="t6Wc2Bh6c8SVzE2tYRkq-18" target="t6Wc2Bh6c8SVzE2tYRkq-1" edge="1">
          <mxGeometry relative="1" as="geometry" />
        </mxCell>
        <mxCell id="t6Wc2Bh6c8SVzE2tYRkq-30" value="" style="edgeStyle=orthogonalEdgeStyle;rounded=0;orthogonalLoop=1;jettySize=auto;html=1;" parent="1" source="t6Wc2Bh6c8SVzE2tYRkq-7" target="t6Wc2Bh6c8SVzE2tYRkq-29" edge="1">
          <mxGeometry relative="1" as="geometry" />
        </mxCell>
        <mxCell id="t6Wc2Bh6c8SVzE2tYRkq-7" value="" style="rounded=1;whiteSpace=wrap;html=1;flipV=1;arcSize=50;" parent="1" vertex="1">
          <mxGeometry x="232.5" y="20" width="135" height="80" as="geometry" />
        </mxCell>
        <mxCell id="6OZl5yegL3ZzFhM0rsZy-8" value="" style="edgeStyle=orthogonalEdgeStyle;rounded=0;orthogonalLoop=1;jettySize=auto;html=1;" parent="1" source="t6Wc2Bh6c8SVzE2tYRkq-12" target="6OZl5yegL3ZzFhM0rsZy-1" edge="1">
          <mxGeometry relative="1" as="geometry" />
        </mxCell>
        <mxCell id="t6Wc2Bh6c8SVzE2tYRkq-12" value="" style="rounded=1;whiteSpace=wrap;html=1;flipV=1;flipH=0;" parent="1" vertex="1">
          <mxGeometry x="234" y="689" width="130" height="60" as="geometry" />
        </mxCell>
        <mxCell id="t6Wc2Bh6c8SVzE2tYRkq-16" value="" style="edgeStyle=orthogonalEdgeStyle;rounded=0;orthogonalLoop=1;jettySize=auto;html=1;" parent="1" source="t6Wc2Bh6c8SVzE2tYRkq-14" target="t6Wc2Bh6c8SVzE2tYRkq-15" edge="1">
          <mxGeometry relative="1" as="geometry" />
        </mxCell>
        <mxCell id="t6Wc2Bh6c8SVzE2tYRkq-14" value="" style="rounded=0;whiteSpace=wrap;html=1;" parent="1" vertex="1">
          <mxGeometry x="530" y="100" width="120" height="60" as="geometry" />
        </mxCell>
        <mxCell id="t6Wc2Bh6c8SVzE2tYRkq-15" value="" style="rounded=0;whiteSpace=wrap;html=1;" parent="1" vertex="1">
          <mxGeometry x="730" y="200" width="120" height="60" as="geometry" />
        </mxCell>
        <mxCell id="t6Wc2Bh6c8SVzE2tYRkq-17" value="" style="rounded=0;whiteSpace=wrap;html=1;" parent="1" vertex="1">
          <mxGeometry x="740" y="320" width="120" height="60" as="geometry" />
        </mxCell>
        <mxCell id="t6Wc2Bh6c8SVzE2tYRkq-24" value="这是需求" style="text;html=1;align=center;verticalAlign=middle;resizable=0;points=[];autosize=1;strokeColor=none;fillColor=none;" parent="1" vertex="1">
          <mxGeometry x="590" y="230" width="70" height="30" as="geometry" />
        </mxCell>
        <mxCell id="t6Wc2Bh6c8SVzE2tYRkq-25" value="" style="edgeStyle=orthogonalEdgeStyle;rounded=0;orthogonalLoop=1;jettySize=auto;html=1;exitX=0.5;exitY=1;exitDx=0;exitDy=0;" parent="1" source="t6Wc2Bh6c8SVzE2tYRkq-7" target="t6Wc2Bh6c8SVzE2tYRkq-18" edge="1">
          <mxGeometry relative="1" as="geometry">
            <mxPoint x="300" y="120" as="sourcePoint" />
            <mxPoint x="300" y="184" as="targetPoint" />
          </mxGeometry>
        </mxCell>
        <mxCell id="t6Wc2Bh6c8SVzE2tYRkq-18" value="abc" style="text;html=1;align=center;verticalAlign=middle;resizable=0;points=[];autosize=1;strokeColor=none;fillColor=none;" parent="1" vertex="1">
          <mxGeometry x="280" y="153" width="40" height="30" as="geometry" />
        </mxCell>
        <mxCell id="t6Wc2Bh6c8SVzE2tYRkq-29" value="" style="rounded=1;whiteSpace=wrap;html=1;flipV=1;arcSize=50;" parent="1" vertex="1">
          <mxGeometry x="232.5" y="-140" width="135" height="80" as="geometry" />
        </mxCell>
        <mxCell id="6OZl5yegL3ZzFhM0rsZy-1" value="" style="rounded=1;whiteSpace=wrap;html=1;flipV=1;flipH=0;" parent="1" vertex="1">
          <mxGeometry x="234" y="800" width="130" height="60" as="geometry" />
        </mxCell>
        <mxCell id="6OZl5yegL3ZzFhM0rsZy-7" value="" style="edgeStyle=orthogonalEdgeStyle;rounded=0;orthogonalLoop=1;jettySize=auto;html=1;" parent="1" source="6OZl5yegL3ZzFhM0rsZy-2" target="t6Wc2Bh6c8SVzE2tYRkq-12" edge="1">
          <mxGeometry relative="1" as="geometry" />
        </mxCell>
        <mxCell id="6OZl5yegL3ZzFhM0rsZy-2" value="" style="rounded=1;whiteSpace=wrap;html=1;flipV=1;flipH=0;" parent="1" vertex="1">
          <mxGeometry x="460" y="689" width="130" height="60" as="geometry" />
        </mxCell>
        <mxCell id="6OZl5yegL3ZzFhM0rsZy-3" value="" style="rounded=1;whiteSpace=wrap;html=1;flipV=1;flipH=0;" parent="1" vertex="1">
          <mxGeometry x="670" y="533" width="130" height="60" as="geometry" />
        </mxCell>
        <mxCell id="6OZl5yegL3ZzFhM0rsZy-5" style="edgeStyle=orthogonalEdgeStyle;rounded=0;orthogonalLoop=1;jettySize=auto;html=1;entryX=0.5;entryY=0;entryDx=0;entryDy=0;" parent="1" source="6OZl5yegL3ZzFhM0rsZy-4" target="6OZl5yegL3ZzFhM0rsZy-2" edge="1">
          <mxGeometry relative="1" as="geometry" />
        </mxCell>
        <mxCell id="6OZl5yegL3ZzFhM0rsZy-6" style="edgeStyle=orthogonalEdgeStyle;rounded=0;orthogonalLoop=1;jettySize=auto;html=1;exitX=1;exitY=0.5;exitDx=0;exitDy=0;entryX=0;entryY=0.5;entryDx=0;entryDy=0;" parent="1" source="6OZl5yegL3ZzFhM0rsZy-4" target="6OZl5yegL3ZzFhM0rsZy-3" edge="1">
          <mxGeometry relative="1" as="geometry" />
        </mxCell>
        <mxCell id="6OZl5yegL3ZzFhM0rsZy-4" value="" style="rounded=1;whiteSpace=wrap;html=1;flipV=1;flipH=0;" parent="1" vertex="1">
          <mxGeometry x="460" y="533" width="130" height="60" as="geometry" />
        </mxCell>
      </root>
    </mxGraphModel>
  </diagram>
  <diagram id="PqC1azRYBiT36CLzdQ4b" name="泳道图">
    <mxGraphModel dx="1554" dy="815" grid="1" gridSize="10" guides="1" tooltips="1" connect="1" arrows="1" fold="1" page="1" pageScale="1" pageWidth="827" pageHeight="1169" math="0" shadow="0">
      <root>
        <mxCell id="0" />
        <mxCell id="1" parent="0" />
        <mxCell id="_2ffyJeHSuKTaIewnzz_-1" value="用户" style="swimlane;whiteSpace=wrap;html=1;" parent="1" vertex="1">
          <mxGeometry x="110" y="100" width="200" height="510" as="geometry" />
        </mxCell>
        <mxCell id="k1lvY6GfSZAHMhrJkln9-1" value="" style="edgeStyle=orthogonalEdgeStyle;rounded=0;orthogonalLoop=1;jettySize=auto;html=1;fillColor=#dae8fc;strokeColor=#6c8ebf;" parent="_2ffyJeHSuKTaIewnzz_-1" source="k1lvY6GfSZAHMhrJkln9-2" target="k1lvY6GfSZAHMhrJkln9-3" edge="1">
          <mxGeometry relative="1" as="geometry" />
        </mxCell>
        <mxCell id="k1lvY6GfSZAHMhrJkln9-2" value="" style="rounded=0;whiteSpace=wrap;html=1;flipV=1;fillColor=#dae8fc;strokeColor=#6c8ebf;" parent="_2ffyJeHSuKTaIewnzz_-1" vertex="1">
          <mxGeometry x="40" y="169.5" width="120" height="60" as="geometry" />
        </mxCell>
        <mxCell id="k1lvY6GfSZAHMhrJkln9-3" value="" style="rounded=0;whiteSpace=wrap;html=1;flipV=1;fillColor=#dae8fc;strokeColor=#6c8ebf;flipH=0;" parent="_2ffyJeHSuKTaIewnzz_-1" vertex="1">
          <mxGeometry x="40" y="280.5" width="120" height="60" as="geometry" />
        </mxCell>
        <mxCell id="_2ffyJeHSuKTaIewnzz_-2" value="员工" style="swimlane;whiteSpace=wrap;html=1;startSize=23;" parent="1" vertex="1">
          <mxGeometry x="310" y="100" width="200" height="510" as="geometry" />
        </mxCell>
        <mxCell id="k1lvY6GfSZAHMhrJkln9-8" value="" style="edgeStyle=orthogonalEdgeStyle;rounded=0;orthogonalLoop=1;jettySize=auto;html=1;" parent="_2ffyJeHSuKTaIewnzz_-2" source="k1lvY6GfSZAHMhrJkln9-5" target="k1lvY6GfSZAHMhrJkln9-7" edge="1">
          <mxGeometry relative="1" as="geometry" />
        </mxCell>
        <mxCell id="k1lvY6GfSZAHMhrJkln9-5" value="" style="rounded=0;whiteSpace=wrap;html=1;flipV=1;fillColor=#dae8fc;strokeColor=#6c8ebf;flipH=0;" parent="_2ffyJeHSuKTaIewnzz_-2" vertex="1">
          <mxGeometry x="40" y="280.5" width="120" height="60" as="geometry" />
        </mxCell>
        <mxCell id="k1lvY6GfSZAHMhrJkln9-7" value="" style="whiteSpace=wrap;html=1;fillColor=#dae8fc;strokeColor=#6c8ebf;rounded=0;" parent="_2ffyJeHSuKTaIewnzz_-2" vertex="1">
          <mxGeometry x="40" y="420.5" width="120" height="60" as="geometry" />
        </mxCell>
        <mxCell id="_2ffyJeHSuKTaIewnzz_-3" value="经理" style="swimlane;whiteSpace=wrap;html=1;" parent="1" vertex="1">
          <mxGeometry x="510" y="100" width="200" height="510" as="geometry" />
        </mxCell>
        <mxCell id="k1lvY6GfSZAHMhrJkln9-12" value="" style="edgeStyle=orthogonalEdgeStyle;rounded=0;orthogonalLoop=1;jettySize=auto;html=1;" parent="_2ffyJeHSuKTaIewnzz_-3" source="k1lvY6GfSZAHMhrJkln9-9" target="k1lvY6GfSZAHMhrJkln9-11" edge="1">
          <mxGeometry relative="1" as="geometry" />
        </mxCell>
        <mxCell id="k1lvY6GfSZAHMhrJkln9-9" value="" style="whiteSpace=wrap;html=1;fillColor=#dae8fc;strokeColor=#6c8ebf;rounded=0;" parent="_2ffyJeHSuKTaIewnzz_-3" vertex="1">
          <mxGeometry x="40" y="420.5" width="120" height="60" as="geometry" />
        </mxCell>
        <mxCell id="k1lvY6GfSZAHMhrJkln9-11" value="" style="rounded=1;whiteSpace=wrap;html=1;arcSize=50;fillColor=#dae8fc;strokeColor=#6c8ebf;" parent="_2ffyJeHSuKTaIewnzz_-3" vertex="1">
          <mxGeometry x="40" y="320" width="120" height="60" as="geometry" />
        </mxCell>
        <mxCell id="k1lvY6GfSZAHMhrJkln9-6" value="" style="edgeStyle=orthogonalEdgeStyle;rounded=0;orthogonalLoop=1;jettySize=auto;html=1;" parent="1" source="k1lvY6GfSZAHMhrJkln9-3" target="k1lvY6GfSZAHMhrJkln9-5" edge="1">
          <mxGeometry relative="1" as="geometry" />
        </mxCell>
        <mxCell id="k1lvY6GfSZAHMhrJkln9-10" value="" style="edgeStyle=orthogonalEdgeStyle;rounded=0;orthogonalLoop=1;jettySize=auto;html=1;" parent="1" source="k1lvY6GfSZAHMhrJkln9-7" target="k1lvY6GfSZAHMhrJkln9-9" edge="1">
          <mxGeometry relative="1" as="geometry" />
        </mxCell>
      </root>
    </mxGraphModel>
  </diagram>
  <diagram id="M4dVma7ay_IUTzUbCN8s" name="时序图">
    <mxGraphModel dx="1554" dy="815" grid="1" gridSize="10" guides="1" tooltips="1" connect="1" arrows="1" fold="1" page="1" pageScale="1" pageWidth="827" pageHeight="1169" math="0" shadow="0">
      <root>
        <mxCell id="0" />
        <mxCell id="1" parent="0" />
        <mxCell id="jYP5VOtg0jZZ4IH7ifzd-8" style="edgeStyle=orthogonalEdgeStyle;rounded=0;orthogonalLoop=1;jettySize=auto;html=1;exitX=0.5;exitY=1;exitDx=0;exitDy=0;dashed=1;endArrow=none;startFill=0;labelBackgroundColor=none;fontColor=default;" edge="1" parent="1" source="jYP5VOtg0jZZ4IH7ifzd-1">
          <mxGeometry relative="1" as="geometry">
            <mxPoint x="250" y="760" as="targetPoint" />
          </mxGeometry>
        </mxCell>
        <mxCell id="jYP5VOtg0jZZ4IH7ifzd-26" value="" style="edgeStyle=orthogonalEdgeStyle;shape=connector;rounded=0;orthogonalLoop=1;jettySize=auto;html=1;strokeColor=default;align=center;verticalAlign=middle;fontFamily=Helvetica;fontSize=11;fontColor=default;labelBackgroundColor=default;startFill=0;endArrow=classic;endFill=1;" edge="1" parent="1" source="jYP5VOtg0jZZ4IH7ifzd-1" target="jYP5VOtg0jZZ4IH7ifzd-3">
          <mxGeometry relative="1" as="geometry" />
        </mxCell>
        <mxCell id="jYP5VOtg0jZZ4IH7ifzd-1" value="自动取款机" style="rounded=0;whiteSpace=wrap;html=1;labelBackgroundColor=none;" vertex="1" parent="1">
          <mxGeometry x="190" y="70" width="120" height="60" as="geometry" />
        </mxCell>
        <mxCell id="jYP5VOtg0jZZ4IH7ifzd-25" value="" style="edgeStyle=orthogonalEdgeStyle;rounded=0;orthogonalLoop=1;jettySize=auto;html=1;strokeColor=default;align=center;verticalAlign=middle;fontFamily=Helvetica;fontSize=11;fontColor=default;labelBackgroundColor=default;startFill=0;endArrow=none;" edge="1" parent="1" source="jYP5VOtg0jZZ4IH7ifzd-2" target="jYP5VOtg0jZZ4IH7ifzd-1">
          <mxGeometry relative="1" as="geometry" />
        </mxCell>
        <mxCell id="jYP5VOtg0jZZ4IH7ifzd-45" style="edgeStyle=orthogonalEdgeStyle;shape=connector;curved=0;rounded=0;orthogonalLoop=1;jettySize=auto;html=1;exitX=0.5;exitY=0.5;exitDx=0;exitDy=0;exitPerimeter=0;strokeColor=default;align=center;verticalAlign=bottom;fontFamily=Helvetica;fontSize=11;fontColor=default;labelBackgroundColor=default;startArrow=none;startFill=0;endArrow=none;strokeWidth=1;dashed=1;" edge="1" parent="1" source="jYP5VOtg0jZZ4IH7ifzd-2">
          <mxGeometry relative="1" as="geometry">
            <mxPoint x="85" y="760" as="targetPoint" />
          </mxGeometry>
        </mxCell>
        <mxCell id="jYP5VOtg0jZZ4IH7ifzd-2" value="Actor" style="shape=umlActor;verticalLabelPosition=bottom;verticalAlign=top;html=1;outlineConnect=0;labelBackgroundColor=none;" vertex="1" parent="1">
          <mxGeometry x="70" y="70" width="30" height="60" as="geometry" />
        </mxCell>
        <mxCell id="jYP5VOtg0jZZ4IH7ifzd-3" value="银行服务器" style="rounded=0;whiteSpace=wrap;html=1;labelBackgroundColor=none;" vertex="1" parent="1">
          <mxGeometry x="353.5" y="70" width="120" height="60" as="geometry" />
        </mxCell>
        <mxCell id="jYP5VOtg0jZZ4IH7ifzd-5" value="银行账户" style="rounded=0;whiteSpace=wrap;html=1;labelBackgroundColor=none;" vertex="1" parent="1">
          <mxGeometry x="520" y="70" width="120" height="60" as="geometry" />
        </mxCell>
        <mxCell id="jYP5VOtg0jZZ4IH7ifzd-10" style="edgeStyle=orthogonalEdgeStyle;rounded=0;orthogonalLoop=1;jettySize=auto;html=1;exitX=0.5;exitY=1;exitDx=0;exitDy=0;dashed=1;endArrow=none;startFill=0;labelBackgroundColor=none;fontColor=default;" edge="1" parent="1">
          <mxGeometry relative="1" as="geometry">
            <mxPoint x="414" y="760" as="targetPoint" />
            <mxPoint x="414" y="130" as="sourcePoint" />
          </mxGeometry>
        </mxCell>
        <mxCell id="jYP5VOtg0jZZ4IH7ifzd-11" style="edgeStyle=orthogonalEdgeStyle;rounded=0;orthogonalLoop=1;jettySize=auto;html=1;exitX=0.5;exitY=1;exitDx=0;exitDy=0;dashed=1;endArrow=none;startFill=0;labelBackgroundColor=none;fontColor=default;" edge="1" parent="1">
          <mxGeometry relative="1" as="geometry">
            <mxPoint x="579.5" y="760" as="targetPoint" />
            <mxPoint x="579.5" y="130" as="sourcePoint" />
          </mxGeometry>
        </mxCell>
        <mxCell id="jYP5VOtg0jZZ4IH7ifzd-39" value="dispatch" style="html=1;verticalAlign=bottom;endArrow=block;curved=0;rounded=0;strokeColor=default;align=center;fontFamily=Helvetica;fontSize=11;fontColor=default;labelBackgroundColor=default;edgeStyle=orthogonalEdgeStyle;startArrow=none;startFill=0;" edge="1" parent="1">
          <mxGeometry width="80" relative="1" as="geometry">
            <mxPoint x="90" y="210" as="sourcePoint" />
            <mxPoint x="250" y="210" as="targetPoint" />
          </mxGeometry>
        </mxCell>
        <mxCell id="jYP5VOtg0jZZ4IH7ifzd-40" value="dispatch" style="html=1;verticalAlign=bottom;endArrow=block;curved=0;rounded=0;strokeColor=default;align=center;fontFamily=Helvetica;fontSize=11;fontColor=default;labelBackgroundColor=default;edgeStyle=orthogonalEdgeStyle;" edge="1" parent="1">
          <mxGeometry width="80" relative="1" as="geometry">
            <mxPoint x="254" y="260" as="sourcePoint" />
            <mxPoint x="414" y="260" as="targetPoint" />
          </mxGeometry>
        </mxCell>
        <mxCell id="jYP5VOtg0jZZ4IH7ifzd-41" value="dispatch" style="html=1;verticalAlign=bottom;endArrow=block;curved=0;rounded=0;strokeColor=default;align=center;fontFamily=Helvetica;fontSize=11;fontColor=default;labelBackgroundColor=default;edgeStyle=orthogonalEdgeStyle;" edge="1" parent="1">
          <mxGeometry width="80" relative="1" as="geometry">
            <mxPoint x="414" y="400" as="sourcePoint" />
            <mxPoint x="574" y="400" as="targetPoint" />
          </mxGeometry>
        </mxCell>
        <mxCell id="jYP5VOtg0jZZ4IH7ifzd-42" value="return" style="html=1;verticalAlign=bottom;endArrow=open;dashed=1;endSize=8;curved=0;rounded=0;strokeColor=default;align=center;fontFamily=Helvetica;fontSize=11;fontColor=default;labelBackgroundColor=default;edgeStyle=orthogonalEdgeStyle;" edge="1" parent="1">
          <mxGeometry relative="1" as="geometry">
            <mxPoint x="410" y="290" as="sourcePoint" />
            <mxPoint x="250" y="290" as="targetPoint" />
          </mxGeometry>
        </mxCell>
        <mxCell id="jYP5VOtg0jZZ4IH7ifzd-43" value="return" style="html=1;verticalAlign=bottom;endArrow=open;dashed=1;endSize=8;curved=0;rounded=0;strokeColor=default;align=center;fontFamily=Helvetica;fontSize=11;fontColor=default;labelBackgroundColor=default;edgeStyle=orthogonalEdgeStyle;" edge="1" parent="1">
          <mxGeometry relative="1" as="geometry">
            <mxPoint x="250" y="330" as="sourcePoint" />
            <mxPoint x="90" y="330" as="targetPoint" />
          </mxGeometry>
        </mxCell>
      </root>
    </mxGraphModel>
  </diagram>
  <diagram id="dBHx482ntmdlEITcOZiA" name="类图">
    <mxGraphModel dx="1554" dy="815" grid="1" gridSize="10" guides="1" tooltips="1" connect="1" arrows="1" fold="1" page="1" pageScale="1" pageWidth="827" pageHeight="1169" math="0" shadow="0">
      <root>
        <mxCell id="0" />
        <mxCell id="1" parent="0" />
        <mxCell id="JzzxGavZZg3pR1xW1NdR-1" value="&amp;lt;&amp;lt;Animal&amp;gt;&amp;gt;" style="swimlane;fontStyle=1;align=center;verticalAlign=top;childLayout=stackLayout;horizontal=1;startSize=30;horizontalStack=0;resizeParent=1;resizeParentMax=0;resizeLast=0;collapsible=1;marginBottom=0;whiteSpace=wrap;html=1;fontFamily=Helvetica;fontSize=11;fontColor=default;labelBackgroundColor=default;" vertex="1" parent="1">
          <mxGeometry x="330" y="160" width="160" height="120" as="geometry" />
        </mxCell>
        <mxCell id="JzzxGavZZg3pR1xW1NdR-2" value="- name: String&lt;div&gt;- id: int&lt;/div&gt;&lt;div&gt;- age: int&lt;/div&gt;" style="text;strokeColor=none;fillColor=none;align=left;verticalAlign=top;spacingLeft=4;spacingRight=4;overflow=hidden;rotatable=0;points=[[0,0.5],[1,0.5]];portConstraint=eastwest;whiteSpace=wrap;html=1;fontFamily=Helvetica;fontSize=11;fontColor=default;labelBackgroundColor=default;" vertex="1" parent="JzzxGavZZg3pR1xW1NdR-1">
          <mxGeometry y="30" width="160" height="50" as="geometry" />
        </mxCell>
        <mxCell id="JzzxGavZZg3pR1xW1NdR-3" value="" style="line;strokeWidth=1;fillColor=none;align=left;verticalAlign=middle;spacingTop=-1;spacingLeft=3;spacingRight=3;rotatable=0;labelPosition=right;points=[];portConstraint=eastwest;strokeColor=inherit;fontFamily=Helvetica;fontSize=11;fontColor=default;labelBackgroundColor=default;" vertex="1" parent="JzzxGavZZg3pR1xW1NdR-1">
          <mxGeometry y="80" width="160" height="10" as="geometry" />
        </mxCell>
        <mxCell id="JzzxGavZZg3pR1xW1NdR-4" value="+ eat(void): void" style="text;strokeColor=none;fillColor=none;align=left;verticalAlign=top;spacingLeft=4;spacingRight=4;overflow=hidden;rotatable=0;points=[[0,0.5],[1,0.5]];portConstraint=eastwest;whiteSpace=wrap;html=1;fontFamily=Helvetica;fontSize=11;fontColor=default;labelBackgroundColor=default;" vertex="1" parent="JzzxGavZZg3pR1xW1NdR-1">
          <mxGeometry y="90" width="160" height="30" as="geometry" />
        </mxCell>
        <mxCell id="JzzxGavZZg3pR1xW1NdR-51" style="edgeStyle=orthogonalEdgeStyle;shape=connector;curved=0;rounded=0;orthogonalLoop=1;jettySize=auto;html=1;exitX=0.5;exitY=0;exitDx=0;exitDy=0;strokeColor=default;strokeWidth=1;align=center;verticalAlign=bottom;fontFamily=Helvetica;fontSize=11;fontColor=default;labelBackgroundColor=default;startArrow=none;startFill=0;endArrow=block;endSize=16;endFill=0;" edge="1" parent="1" source="JzzxGavZZg3pR1xW1NdR-5">
          <mxGeometry relative="1" as="geometry">
            <mxPoint x="400" y="290" as="targetPoint" />
          </mxGeometry>
        </mxCell>
        <mxCell id="JzzxGavZZg3pR1xW1NdR-5" value="Cat" style="swimlane;fontStyle=1;align=center;verticalAlign=top;childLayout=stackLayout;horizontal=1;startSize=30;horizontalStack=0;resizeParent=1;resizeParentMax=0;resizeLast=0;collapsible=1;marginBottom=0;whiteSpace=wrap;html=1;fontFamily=Helvetica;fontSize=11;fontColor=default;labelBackgroundColor=default;" vertex="1" parent="1">
          <mxGeometry x="110" y="370" width="160" height="100" as="geometry" />
        </mxCell>
        <mxCell id="JzzxGavZZg3pR1xW1NdR-7" value="" style="line;strokeWidth=1;fillColor=none;align=left;verticalAlign=middle;spacingTop=-1;spacingLeft=3;spacingRight=3;rotatable=0;labelPosition=right;points=[];portConstraint=eastwest;strokeColor=inherit;fontFamily=Helvetica;fontSize=11;fontColor=default;labelBackgroundColor=default;flipH=1;" vertex="1" parent="JzzxGavZZg3pR1xW1NdR-5">
          <mxGeometry y="30" width="160" height="70" as="geometry" />
        </mxCell>
        <mxCell id="JzzxGavZZg3pR1xW1NdR-52" style="edgeStyle=orthogonalEdgeStyle;shape=connector;curved=0;rounded=0;orthogonalLoop=1;jettySize=auto;html=1;exitX=0.5;exitY=0;exitDx=0;exitDy=0;strokeColor=default;strokeWidth=1;align=center;verticalAlign=bottom;fontFamily=Helvetica;fontSize=11;fontColor=default;labelBackgroundColor=default;startArrow=none;startFill=0;endArrow=block;endSize=16;endFill=0;" edge="1" parent="1" source="JzzxGavZZg3pR1xW1NdR-37">
          <mxGeometry relative="1" as="geometry">
            <mxPoint x="410" y="290" as="targetPoint" />
          </mxGeometry>
        </mxCell>
        <mxCell id="JzzxGavZZg3pR1xW1NdR-37" value="Dog" style="swimlane;fontStyle=1;align=center;verticalAlign=top;childLayout=stackLayout;horizontal=1;startSize=30;horizontalStack=0;resizeParent=1;resizeParentMax=0;resizeLast=0;collapsible=1;marginBottom=0;whiteSpace=wrap;html=1;fontFamily=Helvetica;fontSize=11;fontColor=default;labelBackgroundColor=default;" vertex="1" parent="1">
          <mxGeometry x="330" y="370" width="160" height="100" as="geometry" />
        </mxCell>
        <mxCell id="JzzxGavZZg3pR1xW1NdR-38" value="" style="line;strokeWidth=1;fillColor=none;align=left;verticalAlign=middle;spacingTop=-1;spacingLeft=3;spacingRight=3;rotatable=0;labelPosition=right;points=[];portConstraint=eastwest;strokeColor=inherit;fontFamily=Helvetica;fontSize=11;fontColor=default;labelBackgroundColor=default;flipH=1;" vertex="1" parent="JzzxGavZZg3pR1xW1NdR-37">
          <mxGeometry y="30" width="160" height="70" as="geometry" />
        </mxCell>
        <mxCell id="JzzxGavZZg3pR1xW1NdR-53" style="edgeStyle=orthogonalEdgeStyle;shape=connector;curved=0;rounded=0;orthogonalLoop=1;jettySize=auto;html=1;exitX=0.5;exitY=0;exitDx=0;exitDy=0;strokeColor=default;strokeWidth=1;align=center;verticalAlign=bottom;fontFamily=Helvetica;fontSize=11;fontColor=default;labelBackgroundColor=default;startArrow=none;startFill=0;endArrow=block;endSize=16;endFill=0;" edge="1" parent="1" source="JzzxGavZZg3pR1xW1NdR-39">
          <mxGeometry relative="1" as="geometry">
            <mxPoint x="420" y="290" as="targetPoint" />
          </mxGeometry>
        </mxCell>
        <mxCell id="JzzxGavZZg3pR1xW1NdR-39" value="Monkey" style="swimlane;fontStyle=1;align=center;verticalAlign=top;childLayout=stackLayout;horizontal=1;startSize=30;horizontalStack=0;resizeParent=1;resizeParentMax=0;resizeLast=0;collapsible=1;marginBottom=0;whiteSpace=wrap;html=1;fontFamily=Helvetica;fontSize=11;fontColor=default;labelBackgroundColor=default;" vertex="1" parent="1">
          <mxGeometry x="550" y="370" width="160" height="100" as="geometry" />
        </mxCell>
        <mxCell id="JzzxGavZZg3pR1xW1NdR-40" value="" style="line;strokeWidth=1;fillColor=none;align=left;verticalAlign=middle;spacingTop=-1;spacingLeft=3;spacingRight=3;rotatable=0;labelPosition=right;points=[];portConstraint=eastwest;strokeColor=inherit;fontFamily=Helvetica;fontSize=11;fontColor=default;labelBackgroundColor=default;flipH=1;" vertex="1" parent="JzzxGavZZg3pR1xW1NdR-39">
          <mxGeometry y="30" width="160" height="70" as="geometry" />
        </mxCell>
      </root>
    </mxGraphModel>
  </diagram>
</mxfile>
